<?xml version="1.0" encoding="UTF-8" standalone="no"?>
<!-- Created with Inkscape (http://www.inkscape.org/) -->

<svg
   xmlns:dc="http://purl.org/dc/elements/1.1/"
   xmlns:cc="http://creativecommons.org/ns#"
   xmlns:rdf="http://www.w3.org/1999/02/22-rdf-syntax-ns#"
   xmlns:svg="http://www.w3.org/2000/svg"
   xmlns="http://www.w3.org/2000/svg"
   xmlns:sodipodi="http://sodipodi.sourceforge.net/DTD/sodipodi-0.dtd"
   xmlns:inkscape="http://www.inkscape.org/namespaces/inkscape"
   width="3275.4626"
   height="2850.0923"
   viewBox="0 0 3275.4628 2850.0922"
   id="svg2"
   version="1.1"
   inkscape:version="0.92.3 (2405546, 2018-03-11)"
   sodipodi:docname="chyle.svg"
   inkscape:export-filename="/home/eric/data/WORK/PROJECT/TOOL/CHYLE/LOGO/chyle.png"
   inkscape:export-xdpi="90"
   inkscape:export-ydpi="90">
  <defs
     id="defs4">
    <marker
       inkscape:stockid="Arrow1Lstart"
       orient="auto"
       refY="0"
       refX="0"
       id="Arrow1Lstart"
       style="overflow:visible"
       inkscape:isstock="true">
      <path
         id="path4170"
         d="M 0,0 5,-5 -12.5,0 5,5 Z"
         style="fill:#000000;fill-opacity:1;fill-rule:evenodd;stroke:#000000;stroke-width:1.00000003pt;stroke-opacity:1"
         transform="matrix(0.8,0,0,0.8,10,0)"
         inkscape:connector-curvature="0" />
    </marker>
  </defs>
  <sodipodi:namedview
     id="base"
     pagecolor="#ffffff"
     bordercolor="#666666"
     borderopacity="1.0"
     inkscape:pageopacity="0.0"
     inkscape:pageshadow="2"
     inkscape:zoom="0.35000001"
     inkscape:cx="353.78132"
     inkscape:cy="1081.8328"
     inkscape:document-units="px"
     inkscape:current-layer="layer1"
     showgrid="false"
     units="px"
     inkscape:window-width="3840"
     inkscape:window-height="2095"
     inkscape:window-x="0"
     inkscape:window-y="32"
     inkscape:window-maximized="1"
     fit-margin-top="100"
     fit-margin-left="100"
     fit-margin-right="100"
     fit-margin-bottom="100">
    <inkscape:grid
       type="xygrid"
       id="grid4149"
       originx="180.92485"
       originy="56.101478" />
  </sodipodi:namedview>
  <metadata
     id="metadata7">
    <rdf:RDF>
      <cc:Work
         rdf:about="">
        <dc:format>image/svg+xml</dc:format>
        <dc:type
           rdf:resource="http://purl.org/dc/dcmitype/StillImage" />
        <dc:title></dc:title>
      </cc:Work>
    </rdf:RDF>
  </metadata>
  <g
     inkscape:label="Calque 1"
     inkscape:groupmode="layer"
     id="layer1"
     transform="translate(180.92482,1741.6285)">
    <text
       xml:space="preserve"
       style="font-style:normal;font-weight:normal;font-size:13.44123363px;line-height:0%;font-family:sans-serif;letter-spacing:0px;word-spacing:0px;fill:#2b59d8;fill-opacity:1;stroke:#ffffff;stroke-width:20.16185188;stroke-linecap:butt;stroke-linejoin:miter;stroke-miterlimit:4;stroke-dasharray:none;stroke-opacity:1"
       x="-72.136253"
       y="980.49622"
       id="text4177"
       transform="scale(0.98208443,1.0182424)"><tspan
         sodipodi:role="line"
         x="-72.136253"
         y="980.49622"
         style="font-style:normal;font-variant:normal;font-weight:normal;font-stretch:normal;font-size:876.03826904px;line-height:100%;font-family:'KenVector Future';-inkscape-font-specification:'KenVector Future';letter-spacing:-88.01298523px;fill:#2b59d8;fill-opacity:1;stroke:none;stroke-width:20.16185188;stroke-miterlimit:4;stroke-dasharray:none;stroke-opacity:1"
         id="tspan4199">Chyle</tspan></text>
    <g
       id="g4558"
       transform="translate(-3184.0323,-550.66402)" />
    <g
       id="g4560"
       transform="translate(-3184.0323,-550.66402)" />
    <g
       id="g4562"
       transform="translate(-3184.0323,-550.66402)" />
    <g
       id="g4564"
       transform="translate(-3184.0323,-550.66402)" />
    <g
       id="g4566"
       transform="translate(-3184.0323,-550.66402)" />
    <g
       id="g4568"
       transform="translate(-3184.0323,-550.66402)" />
    <g
       id="g4570"
       transform="translate(-3184.0323,-550.66402)" />
    <g
       id="g4572"
       transform="translate(-3184.0323,-550.66402)" />
    <g
       id="g4574"
       transform="translate(-3184.0323,-550.66402)" />
    <g
       id="g4576"
       transform="translate(-3184.0323,-550.66402)" />
    <g
       id="g4578"
       transform="translate(-3184.0323,-550.66402)" />
    <g
       id="g4580"
       transform="translate(-3184.0323,-550.66402)" />
    <g
       id="g4582"
       transform="translate(-3184.0323,-550.66402)" />
    <g
       id="g4584"
       transform="translate(-3184.0323,-550.66402)" />
    <g
       id="g4586"
       transform="translate(-3184.0323,-550.66402)" />
    <g
       id="g4713"
       transform="translate(-144.37761)">
      <path
         style="fill:#193689;fill-opacity:1;stroke-width:3.69900274"
         id="path4546"
         d="m 1169.5065,-1440.8254 c 267.7449,-267.7412 703.3876,-267.7338 971.1288,0 212.5003,212.5003 256.3113,530.74767 131.4995,786.89254 l 525.1659,525.16961 c 87.0487,87.048618 87.0487,228.687134 0,315.73576 -43.5224,43.52617 -100.6942,65.2874 -157.8697,65.2874 -57.1755,0 -114.3436,-21.75753 -157.8697,-65.2837 l -525.1696,-525.1696 c -94.7759,46.18205 -198.0483,69.30452 -301.3282,69.30452 -175.8469,0 -351.6938,-66.93716 -485.5681,-200.80776 -267.72632,-267.74488 -267.72632,-703.38757 0,-971.12877 z M 2560.1318,108.4057 c 43.7296,43.72591 114.8762,43.72591 158.6021,0 43.7259,-43.729602 43.7259,-114.8762218 0,-158.602142 L 2213.4206,-555.50979 c -21.5541,30.07289 -45.79,58.81044 -72.789,85.80946 -27.0027,27.00272 -55.7403,51.23489 -85.8132,72.79267 z M 1248.0733,-548.26345 c 224.4185,224.41849 589.5767,224.42219 813.9952,0 224.4185,-224.42216 224.4185,-589.57295 0,-813.99515 -112.2241,-112.2203 -259.5886,-168.3157 -407.0013,-168.3157 -147.3719,0 -294.8031,56.1176 -406.9976,168.3157 -224.4146,224.4222 -224.4146,589.57299 0,813.99515 z"
         inkscape:connector-curvature="0" />
      <path
         style="fill:#d82b41;fill-opacity:1;stroke-width:89.43818665"
         id="path4618"
         d="m 1570.9124,-612.72398 c -17.8878,0 -35.0599,-7.15508 -47.6706,-19.85529 l -243.8981,-245.95488 c -26.1157,-26.2948 -25.9371,-68.7782 0.3563,-94.894 26.3846,-26.02649 68.7783,-25.84749 94.9834,0.4473 l 193.008,194.61734 379.4861,-437.35269 c 24.2376,-27.9941 66.6313,-31.0353 94.6257,-6.7079 27.9941,24.2376 30.9456,66.6313 6.7079,94.6257 l -426.8885,491.90994 c -12.2532,14.13121 -29.8726,22.53842 -48.4756,23.16448 -0.7156,0 -1.5206,0 -2.2358,0 z"
         inkscape:connector-curvature="0" />
      <path
         style="fill:#333333;fill-opacity:1;stroke-width:4.09220934"
         id="path4679"
         d="m 401.16421,-719.66253 h 261.74588 c 33.89986,0 61.38314,-27.48328 61.38314,-61.38314 0,-33.89986 -27.48328,-61.38314 -61.38314,-61.38314 H 401.16421 c -33.89986,0 -61.38314,27.48328 -61.38314,61.38314 0,33.89986 27.48328,61.38314 61.38314,61.38314 z"
         inkscape:connector-curvature="0" />
      <path
         style="fill:#333333;fill-opacity:1;stroke-width:4.09220934"
         id="path4681"
         d="m 401.16421,-457.76114 h 359.90161 c 33.89986,0 61.38314,-27.48328 61.38314,-61.38314 0,-33.89986 -27.48328,-61.38314 -61.38314,-61.38314 H 401.16421 c -33.89986,0 -61.38314,27.48328 -61.38314,61.38314 0,33.89986 27.48328,61.38314 61.38314,61.38314 z"
         inkscape:connector-curvature="0" />
      <path
         style="fill:#333333;fill-opacity:1;stroke-width:4.09220934"
         id="path4683"
         d="m 401.16421,-195.85976 h 621.65159 c 33.8999,0 61.3831,-27.48327 61.3831,-61.38313 0,-33.89986 -27.4832,-61.38314 -61.3831,-61.38314 H 401.16421 c -33.89986,0 -61.38314,27.48328 -61.38314,61.38314 0,33.89986 27.48328,61.38313 61.38314,61.38313 z"
         inkscape:connector-curvature="0" />
      <path
         style="fill:#333333;fill-opacity:1;stroke-width:4.09220934"
         id="path4685"
         d="M 1742.6272,-56.724643 H 401.16421 c -33.89986,0 -61.38314,27.483277 -61.38314,61.3831383 0,33.8998607 27.48328,61.3831377 61.38314,61.3831377 H 1742.6272 c 33.8999,0 61.3832,-27.483277 61.3832,-61.3831377 0,-33.8998613 -27.4833,-61.3831383 -61.3832,-61.3831383 z"
         inkscape:connector-curvature="0" />
    </g>
  </g>
</svg>
